<svg width="32" height="32" viewBox="0 0 32 32" fill="none" xmlns="http://www.w3.org/2000/svg">
<rect width="32" height="32" rx="8" fill="#CFFFCE"/>
<path d="M25 16C25 17.78 24.4722 19.5201 23.4832 21.0001C22.4943 22.4802 21.0887 23.6337 19.4442 24.3149C17.7996 24.9961 15.99 25.1743 14.2442 24.8271C12.4984 24.4798 10.8947 23.6226 9.63604 22.364C8.37737 21.1053 7.5202 19.5016 7.17293 17.7558C6.82567 16.01 7.0039 14.2004 7.68508 12.5558C8.36627 10.9113 9.51983 9.50571 10.9999 8.51677C12.4799 7.52784 14.22 7 16 7V16H25Z" fill="#70F08C"/>
<path d="M18 5C19.1819 5 20.3522 5.23279 21.4442 5.68508C22.5361 6.13738 23.5282 6.80031 24.364 7.63604C25.1997 8.47177 25.8626 9.46392 26.3149 10.5559C26.7672 11.6478 27 12.8181 27 14L18 14V5Z" fill="#00CE2D"/>
</svg>
