<svg width="25" height="24" viewBox="0 0 25 24" fill="none" xmlns="http://www.w3.org/2000/svg">
<path d="M18.5 20H4.5V6H13.5V4H4.5C3.4 4 2.5 4.9 2.5 6V20C2.5 21.1 3.4 22 4.5 22H18.5C19.6 22 20.5 21.1 20.5 20V11H18.5V20ZM10.71 16.83L8.75 14.47L6 18H17L13.46 13.29L10.71 16.83Z" fill="#E2261A"/>
<rect x="14.5" y="2" width="8" height="8" rx="4" fill="#E2261A"/>
<path d="M18.5038 6.98101C18.3587 6.98101 18.2382 6.86876 18.228 6.72396L18.1 4.90647V3.90385C18.1 3.68081 18.2808 3.5 18.5038 3.5C18.7269 3.5 18.9077 3.68081 18.9077 3.90385V4.90647L18.7796 6.72396C18.7694 6.86876 18.649 6.98101 18.5038 6.98101ZM18.5 8.5C18.3615 8.5 18.2436 8.45546 18.1462 8.36639C18.0487 8.27731 18 8.16948 18 8.0429C18 7.91632 18.0487 7.80849 18.1462 7.71941C18.2436 7.63033 18.3615 7.58579 18.5 7.58579C18.6436 7.58579 18.7615 7.63033 18.8538 7.71941C18.9513 7.80849 19 7.91632 19 8.0429C19 8.16948 18.9513 8.27731 18.8538 8.36639C18.7615 8.45546 18.6436 8.5 18.5 8.5Z" fill="white"/>
</svg>
